<svg width="123" height="123" viewBox="0 0 123 123" fill="none" xmlns="http://www.w3.org/2000/svg">
<path d="M78.0972 29.5074C76.1417 26.8682 71.1867 23.7786 67.6752 26.4389C66.0853 27.6435 63.9088 35.2735 60.364 33.2793C53.4518 29.39 65.0495 11.1467 77.4029 9.5653C81.6742 9.01859 87.109 9.22335 91.8226 9.31864C92.8642 9.33974 93.8722 9.35556 94.8228 9.35688C95.0472 9.35721 95.2621 9.34172 95.4719 9.31864C95.4719 9.31864 123 9.31864 123 4.64632C123 -0.0260004 91.8229 0.00495678 91.8229 0.00495678C88.7925 -0.0524175 85.4807 0.407171 83.2682 0.409479C83.5367 0.40783 86.7841 0.409882 83.2488 0.409882C83.2488 0.234792 61.7271 -0.693124 50.4971 14.2947C44.5052 22.2915 46.0146 45.6602 65.5143 45.6602C72.453 45.6599 84.8944 38.6807 78.0972 29.5074Z" fill="#40474E"/>
<path d="M63.9931 65.6465C71.5297 72.5066 75.73 98.6445 79.488 100.52C84.2346 102.889 84.0247 98.1655 86.9207 96.9629C88.7397 96.2075 94.7469 100.115 96.2244 100.854C98.5676 102.025 101.028 103.369 103.119 101.342C105.571 98.9657 104.344 96.2437 102.799 93.8888C101.276 91.5664 100.629 88.6858 99.2005 86.347C97.5946 83.7177 105.281 82.8501 104.804 79.3995C104.329 75.9534 93.3234 70.7406 90.0295 71.0354C87.9246 71.2236 75.8512 67.0723 73.6085 65.5387C71.2758 63.9438 68.3642 62.2251 65.8811 60.8218C61.729 58.4747 62.1096 63.9319 63.9931 65.6465Z" fill="#40474E"/>
<path d="M87.2873 23.611C88.3069 26.3263 94.074 30.2894 92.8745 42.4679C92.4142 47.1439 83.5464 53.824 78.8891 53.7921C76.3024 53.7742 60.3163 52.8092 67.8505 56.8844C73.3487 59.8583 79.142 60.7152 85.4992 60.7152C93.1292 60.7353 100.593 56.4026 102.793 56.4102C108.675 56.4307 113.594 47.1153 107.815 43.6514C104.472 41.6479 104.418 40.9759 104.477 36.9481C104.501 35.2826 101.634 22.8325 95.4228 21.7994C94.3181 21.6158 86.2189 20.7647 87.2873 23.611Z" fill="#40474E"/>
<path d="M85.4992 60.7152C87.7929 60.7212 85.4992 60.7156 85.4992 60.7152Z" fill="#40474E"/>
<path d="M19.3116 27.9746C19.6555 32.6741 23.8569 36.2131 28.6956 35.8791C33.5343 35.545 37.1781 31.4645 36.8342 26.7649C36.4902 22.0654 32.2889 18.5264 27.4501 18.8604C22.6114 19.1945 18.9676 23.275 19.3116 27.9746Z" fill="#40474E"/>
<path d="M44.5055 46.6091C44.5055 48.5116 46.0935 50.0538 48.0523 50.0538C50.0111 50.0538 51.5991 48.5116 51.5991 46.6091C51.5991 44.7066 50.0111 43.1643 48.0523 43.1643C46.0935 43.1643 44.5055 44.7066 44.5055 46.6091Z" fill="#40474E"/>
<path d="M62.6176 82.5828C62.6236 84.8161 62.6183 82.5828 62.6176 82.5828Z" fill="#40474E"/>
<path d="M62.6176 82.5828C62.619 76.4088 61.738 70.782 58.6778 65.4426C54.4842 58.1257 55.4749 73.6513 55.4926 76.1633C55.5245 80.6863 48.6462 89.299 43.8327 89.7465C31.2956 90.9121 27.2175 85.3111 24.4224 84.3213C21.4928 83.2836 22.3674 91.1494 22.5561 92.2224C23.6184 98.2542 36.4339 101.039 38.1488 101.015C42.2951 100.957 42.9867 101.01 45.0485 104.256C48.6133 109.869 58.2035 105.091 58.1835 99.3784C58.176 97.2413 62.637 89.9926 62.6176 82.5828Z" fill="#40474E"/>
<path d="M3.52958 123C8.3084 123 9.79957 89.0705 9.79957 89.0705H9.74222C9.73441 84.374 9.76562 78.8117 10.3441 74.5551C11.9744 62.557 30.3778 51.4604 34.3802 58.1735C36.4325 61.6156 28.5771 63.7302 27.3372 65.2744C24.5981 68.6848 27.7775 73.497 30.4939 75.3959C39.9358 81.9966 47.1227 69.9134 47.1241 63.1746C47.1282 44.2368 23.0721 42.7722 14.8388 48.5917C-0.591894 59.4987 0.359551 80.3997 0.539487 80.3997C0.538808 83.8319 0.537691 80.6883 0.539049 80.4258C0.535314 82.9453 -0.107077 86.9268 0.209678 90.2192C0.209678 90.2192 -1.24925 123 3.52958 123Z" fill="#40474E"/>
</svg>
